<?xml version="1.0" encoding="utf-8"?>
<!-- Generator: Adobe Illustrator 18.0.0, SVG Export Plug-In . SVG Version: 6.00 Build 0)  -->
<!DOCTYPE svg PUBLIC "-//W3C//DTD SVG 1.1//EN" "http://www.w3.org/Graphics/SVG/1.1/DTD/svg11.dtd">
<svg version="1.1" id="Layer_1" xmlns="http://www.w3.org/2000/svg" xmlns:xlink="http://www.w3.org/1999/xlink" x="0px" y="0px"
	 viewBox="0 0 289 168.6" enable-background="new 0 0 289 168.6" xml:space="preserve">
<g>
	<path fill="#FED137" d="M177.1,100.8c7.9,12.5,17.9,22.8,31.9,28.4c16.5,6.6,31,0.3,36.8-16.4c2-5.9,2.7-12.2,3.6-16.7
		c-0.6-5.8-0.8-9.8-1.5-13.7C243.1,56.7,231.6,35,209.5,20c-7-4.7-14.8-7.8-23.5-6.7c-13.1,1.7-22,12.2-24.1,27.4
		C159,62.8,165.6,82.5,177.1,100.8z M174.9,42.7c4.2-13.4,15.4-18.5,28.4-13.1c10.4,4.3,17.9,12,23.7,21.4
		c8.8,14.2,14,29.4,10.9,46.4c-3.1,17.1-17,24-32.4,15.7c-16.6-8.9-25.3-24.1-30.4-41.5c-1.5-5.1-1.9-10.4-2.8-15.9
		C173.2,51.4,173.6,46.9,174.9,42.7z"/>
	<path fill="#FED137" d="M39.8,111.8c7.4,14.9,14.9,29.7,22.3,44.5c0.2-0.1,0.4-0.2,0.7-0.3c-0.2-0.7-0.3-1.5-0.5-2.2
		c-5-12.1-10-24.3-15-36.4c-3.2-7.7-7.1-15.1-9.6-22.9c-1.2-3.9-1.5-9.5,0.4-12.9c4.4-7.9,12.1-12.3,20.7-15.2
		c11.6,23.3,23,46.2,34.4,69c0.4-1.9,0-3.4-0.6-4.8c-7.3-16-14.9-31.9-22-48c-2-4.6-3.6-9.8-4-14.8c-0.7-9.4,6.2-14.1,13.5-17.3
		c16.6-7.2,33.4-13.9,50.1-20.8c1.1-0.5,2.3-0.6,4-1c-1.8,3.6-3.1,6.7-4.8,9.5c-0.7,1.1-2,2.3-3.2,2.5c-10.2,1.7-16,8.2-19.4,17.3
		c-4,10.7-3.8,21.6-1.2,32.4c2,8.3,5.2,16.3,7.8,24.4c0.5-0.2,1-0.3,1.4-0.5c-1.8-5.5-4-10.8-5.4-16.4c-3.5-14.2-4.5-28.3,2.8-41.8
		c3.2-5.8,8-9.8,14.6-11.7c-1.5,26.1,0.8,43.3,7.5,53.2c-0.6-1.7-0.9-2.5-1.1-3.2c-4.6-13.7-7.4-27.6-5.2-42.1
		c2.1-14.3,8-26,22.3-31.8c1.3-0.5,2.5-1.3,3.7-1.9c-0.1-0.1-0.1-0.2-0.2-0.4c-21.6,7.5-43.1,15.1-64.9,22.7
		c-3.3-6.5-6.2-12.4-9.6-19.1c10.3-3.9,19.8-7.5,29.4-11.1c-9,1.9-17.7,4.4-26.3,7.5c-6.1,2.2-6.4,3.4-4.2,9.3
		c1.8,5,3.8,9.9,5.4,13.8C70.7,49.7,58.1,57.7,45.8,66c-4.6,3.2-8.9,7-12.9,10.9c-4.7,4.4-5.2,9.8-2.4,15.5
		C33.5,98.9,36.7,105.4,39.8,111.8z"/>
	<path fill="#FED137" d="M132.8,60.2c6.8-18.1,19.8-31.2,32.6-44.9C141.8,24.6,129.7,41.2,132.8,60.2z"/>
	<path fill="#FED137" d="M109.4,73.5c0.4,0.2,0.9,0.5,1.3,0.7c4.9-8.9,9.7-17.8,15-27.5C115.9,50.3,108.5,63.2,109.4,73.5z"/>
	<path fill="#FED137" d="M213.5,111c4.8-2.6,7.6-6.1,8.5-11.2c3-18-2.3-33.5-14.5-46.7c-0.8-0.8-1.8-1.3-3.2-2.3
		C217.7,69.6,224.3,88.8,213.5,111z"/>
	<path fill="#FED137" d="M192.7,44.1c-6.1,0.1-9.5,3-12,7.5c-3.3,6-2.5,22.5,3.2,29.3C181.2,67.3,179.6,54.2,192.7,44.1z"/>
</g>
</svg>
