<?xml version="1.0" encoding="UTF-8"?>
<!-- Generator: Adobe Illustrator 18.0.0, SVG Export Plug-In . SVG Version: 6.00 Build 0)  -->
<!DOCTYPE svg PUBLIC "-//W3C//DTD SVG 1.1//EN" "http://www.w3.org/Graphics/SVG/1.1/DTD/svg11.dtd">
<svg version="1.1" xmlns="http://www.w3.org/2000/svg" xmlns:xlink="http://www.w3.org/1999/xlink" x="0px" y="0px" viewBox="0 0 289 168.6" enable-background="new 0 0 289 168.6" xml:space="preserve">
<g id="Layer_1">
	<g>
		<path fill="#FED137" d="M163.4,89.2c7,11.1,16,20.3,28.5,25.3c14.7,5.9,27.6,0.3,32.8-14.6c1.8-5.2,2.4-10.9,3.2-14.9    c-0.6-5.2-0.7-8.8-1.4-12.2c-4.3-22.9-14.6-42.2-34.3-55.6c-6.2-4.2-13.2-7-20.9-6c-11.7,1.5-19.7,10.9-21.5,24.4    C147.2,55.2,153.1,72.8,163.4,89.2z M161.4,37.3c3.8-11.9,13.7-16.5,25.3-11.7c9.3,3.8,16,10.7,21.2,19.1    c7.9,12.7,12.5,26.3,9.8,41.4c-2.8,15.3-15.2,21.4-28.9,14c-14.8-8-22.5-21.5-27.1-37c-1.3-4.5-1.7-9.3-2.5-14.2    C159.9,45.1,160.2,41.1,161.4,37.3z"/>
		<path fill="#FED137" d="M40.9,98.9c6.6,13.3,13.3,26.5,19.9,39.7c0.2-0.1,0.4-0.1,0.6-0.2c-0.2-0.7-0.2-1.4-0.5-2    c-4.4-10.8-8.9-21.6-13.4-32.4c-2.9-6.8-6.3-13.4-8.6-20.5c-1.1-3.5-1.3-8.5,0.4-11.5c3.9-7.1,10.8-11,18.4-13.5    c10.4,20.8,20.6,41.2,30.7,61.5c0.3-1.7,0-3-0.6-4.3c-6.5-14.3-13.3-28.5-19.6-42.9c-1.8-4.1-3.2-8.7-3.6-13.2    c-0.6-8.4,5.5-12.6,12-15.4c14.8-6.5,29.8-12.4,44.7-18.5c1-0.4,2.1-0.6,3.5-0.9c-1.6,3.2-2.8,6-4.3,8.5c-0.6,1-1.8,2.1-2.9,2.2    c-9.1,1.5-14.3,7.3-17.3,15.5c-3.5,9.5-3.4,19.3-1,28.9c1.8,7.4,4.6,14.5,7,21.7c0.4-0.2,0.9-0.3,1.3-0.5    c-1.6-4.9-3.6-9.6-4.8-14.6c-3.1-12.6-4-25.3,2.5-37.3c2.8-5.2,7.1-8.8,13.1-10.5c-1.3,23.3,0.7,38.6,6.7,47.4    c-0.5-1.5-0.8-2.2-1-2.9c-4.1-12.2-6.6-24.6-4.7-37.6c1.9-12.8,7.1-23.2,19.9-28.4c1.2-0.5,2.2-1.2,3.3-1.7    c-0.1-0.1-0.1-0.2-0.2-0.3c-19.2,6.7-38.5,13.5-57.9,20.3c-2.9-5.8-5.5-11-8.6-17.1c9.2-3.5,17.7-6.7,26.2-9.9    c-8,1.7-15.8,3.9-23.4,6.7c-5.4,2-5.7,3-3.7,8.3c1.6,4.4,3.4,8.8,4.8,12.3c-11.5,7.5-22.7,14.6-33.7,22.1    c-4.1,2.8-7.9,6.3-11.5,9.7c-4.2,3.9-4.6,8.8-2.2,13.9C35.3,87.5,38.1,93.2,40.9,98.9z"/>
		<path fill="#FED137" d="M123.9,53c6.1-16.2,17.6-27.8,29.1-40C131.9,21.2,121.1,36,123.9,53z"/>
		<path fill="#FED137" d="M103,64.8c0.4,0.2,0.8,0.4,1.2,0.6c4.3-7.9,8.7-15.8,13.4-24.5C108.8,44.1,102.2,55.6,103,64.8z"/>
		<path fill="#FED137" d="M195.9,98.3c4.3-2.3,6.8-5.5,7.6-10c2.7-16.1-2.1-29.8-13-41.7c-0.7-0.7-1.6-1.2-2.9-2    C199.6,61.3,205.5,78.4,195.9,98.3z"/>
		<path fill="#FED137" d="M177.3,38.5c-5.5,0.1-8.4,2.7-10.7,6.7c-3,5.3-2.2,20.1,2.8,26.1C167.1,59.3,165.6,47.6,177.3,38.5z"/>
	</g>
</g>
<g id="Layer_3">
	<g>
		<path fill="#FFFFFF" d="M23.4,143.9c1.4,3.8-2.2,8-4.6,9.7c-4,2.9-8.7,2.8-11.7,1.2c-2.5-1.3-4.7-4.8-4.8-9.4    C2,133.4,12,123.3,18.3,120.8c3-1.2,5.8-1.4,7.6,0.2c1.2,1.1,2.5,2.7,3,4.1c0.5,1.6,0.3,3.2-0.5,4.9c-0.8,1.7-1.6,3.9-2.2,5.6    c-0.2,0.4-0.6,0.8-1.2,0.3c-1.3-0.8-2.2-2.6-1.3-5.4c0.9-3,2.9-6.2,1.6-7.5c-1.6-1.7-10.1,2.9-15.2,11.2    c-4.9,8.2-4.4,16.5-1.6,18.8c3.6,2.9,9.6-0.8,13.8-9.2C22.5,143.2,23.1,143.2,23.4,143.9z"/>
		<path fill="#FFFFFF" d="M41.4,135.1c0.7-0.5,1.1-0.6,1.5-0.1c1.1,1.2,2.4,3.7,0.8,5.5c-2.5,2.9-5.3,6.4-6.2,9.3    c-0.9,2.9-0.2,5.1,1.4,5.2c2.2,0.1,4.9-3.4,6.7-7.4c0.2-0.5,0.6-0.5,0.8-0.1c0.3,0.6,0.3,2-0.3,3.5c-1.3,3.3-4.6,5.6-7.5,5.5    c-4-0.2-5.7-3.9-4.3-8.1c1.2-3.7,4.5-7.7,6.7-10.3c-2.5,1.6-4.9,2.1-6.6,2.1c-2.1,3.9-7.5,11.9-8.6,17c-0.1,0.5-0.5,0.8-1,0.3    c-1.6-1.7-1.6-4.3-0.1-7.1c1.3-2.5,5.1-7.8,7.1-10.7c-3.2-2.1,1.7-8.7,3.8-8.8c1.7-0.1,1.3,3.2-0.1,6.7    C37.4,137.4,39.4,136.5,41.4,135.1z"/>
		<path fill="#FFFFFF" d="M52.6,154.7c4.7,0.2,8.8-4.3,11.2-8c0.3-0.4,0.7-0.4,1,0.1c0.2,0.4,0.1,2-1,3.5c-2.4,3.4-6.7,6-11,6.1    c-7.1,0.1-9.6-6.9-6-14.2s9.4-10.2,12.2-8.5c1.4,0.8,2.4,1.7,3.3,2.9c1,1.3,0.6,4.8-1.8,7.6c-2.8,3.4-6.5,4.8-10.5,1.6    C48.3,151,49.6,154.5,52.6,154.7z M57.3,141.8c1.8-2.4,3-5.3,2.2-5.9c-1.2-1-5.8,2.4-8.5,7.8c-0.2,0.3-0.3,0.7-0.4,1    C53.4,146.3,55.7,143.9,57.3,141.8z"/>
		<path fill="#FFFFFF" d="M83.1,133.7c0.5-0.7,1-0.8,1.3-0.3c0.8,1,1.3,3.4-0.1,6.2c-1.2,2.5-4,6.7-5.4,9.7    c-1.4,3.1-1.5,5.6,0.4,5.5c2.3-0.1,5.4-3.9,7.4-7.8c0.3-0.5,0.7-0.6,0.9-0.1c0.2,0.5,0.2,1.9-0.5,3.5c-1.5,3.1-5,6.2-8.1,6    c-3-0.2-4.6-2-4.6-4.6c-1.8,2.3-4.3,4.4-7,4.4c-5.2,0-6.3-7.1-1.6-13.9c4.6-6.6,9-9.2,11.8-9.2c2.4,0,3.5,1.9,3.4,4    C81.9,135.8,82.5,134.6,83.1,133.7z M78.6,136c-1.8-0.2-5.9,3.5-9,8.5c-3,4.8-3.7,9.8-1.5,9.8c2.3,0.1,5.2-3.5,8.1-8.5    C79.8,139.7,80.3,136.2,78.6,136z"/>
		<path fill="#FFFFFF" d="M89.2,132.1c-0.6-0.8-0.2-1.2,0.6-1.1c1.6,0.1,3.1-0.1,4.7-0.2c1.7-3.1,3.3-5.7,4.3-7    c0.5-0.7,1.1-0.7,1.3,0c0.6,1.6,0.6,3.4-0.7,6.4c2.2-0.1,3,1,3.5,1.7c0.4,0.7,0.2,1.1-0.7,1.1c-1.2-0.2-3,0-4.4,0.2    c-2.2,3.8-5.4,9.2-7.5,13.9c-1.9,4.1-1.2,7.6,1.1,7.7c2.5,0.1,5.7-3.9,7.8-8.1c0.3-0.7,1-0.8,1.2,0c0.3,0.9,0,1.9-0.6,3.2    c-0.7,1.6-4.4,6.6-8.9,6.4c-3.7-0.1-6.7-4.3-4-10.7c1.2-2.8,3.5-7.5,6-12C90.9,133.5,89.6,132.7,89.2,132.1z"/>
		<path fill="#FFFFFF" d="M97.9,148.1c1.4-4.1,5.1-10.7,7.2-13.7c0.5-0.7,0.9-0.8,1.3-0.3c0.8,0.9,1.3,3.3-0.1,6.1    c-1.2,2.5-3.5,6.3-4.7,9.1c-1.3,3.3-1.2,5.5,0.6,5.3c2.5-0.1,5.6-3.8,7.3-7.7c0.3-0.5,0.7-0.4,0.9,0c0.4,0.9,0.3,2.1-0.4,3.5    c-1.7,3.5-5.2,5.8-8.4,5.8C97.4,156.3,96.4,152.7,97.9,148.1z M110.5,133.4c-0.7,0.8-2.3,0.6-3.1-0.8c-0.9-1.5-0.6-3.2,0.3-4.2    c0.9-1,2.5-0.3,3.3,1.2C111.6,131.1,111.2,132.6,110.5,133.4z"/>
		<path fill="#FFFFFF" d="M127.5,133.4c0.6-0.6,1-0.5,1.1,0.2c0.2,1.2-0.5,2.6-2.3,4.9c-2.8,3.5-7.9,8.9-13.3,17.5    c-0.3,0.5-0.6,0.8-1.1,0.6c-2.2-1.1-3-2.2-2.8-5.2c0.2-3.9,1.7-12,3.7-17.8c0.2-0.6,0.7-0.8,1.1-0.4c1.9,1.6,2.1,3.7,1.3,7.1    c-1,4.3-2.1,7.5-2.9,13.6C116.2,147.2,123.7,137.3,127.5,133.4z"/>
		<path fill="#FFFFFF" d="M132.7,154.7c4.7,0.2,8.8-4.3,11.2-8c0.3-0.4,0.7-0.4,1,0.1c0.2,0.4,0.1,2-1,3.5c-2.4,3.4-6.7,6-11,6.1    c-7.1,0.1-9.6-6.9-6-14.2c3.7-7.3,9.4-10.2,12.2-8.5c1.4,0.8,2.4,1.7,3.3,2.9c1,1.3,0.6,4.8-1.8,7.6c-2.8,3.4-6.5,4.8-10.5,1.6    C128.4,151,129.7,154.5,132.7,154.7z M137.4,141.8c1.8-2.4,3-5.3,2.2-5.9c-1.2-1-5.8,2.4-8.5,7.8c-0.2,0.3-0.3,0.7-0.4,1    C133.4,146.3,135.8,143.9,137.4,141.8z"/>
		<path fill="#FFFFFF" d="M159.2,149.1c2.2,1.8,6.1,4.7,9.7,4.7c1.6,0,2.8-0.4,3.5-1c1-1.1,0.7-2.2-0.1-2.9c-3-2.5-11.9-6-11.9-11.8    c0-7.7,8.7-14.3,13.7-16.4c2.7-1.1,5.4-1.6,7.3,0.1c1.4,1.3,2.4,3.1,2.8,4.7c0.6,2.2-0.8,4.4-1.6,5.6c-1.5,2-3.1,4.8-3.9,6.2    c-0.3,0.5-0.6,0.8-1.2,0.2c-1.1-1.1-1.7-2.8-0.6-5.5c1.2-2.7,5.4-7.4,4-8.8c-1.9-2-15.7,6.6-16,13.7c-0.2,3.7,7,6.6,10.2,8.9    c2.1,1.5,1.9,4.1-0.6,7c-3.4,3.9-13.2,4.9-21.1-4.6c-0.6-0.7-0.4-1.1,0.1-1.3C155.4,147.3,157.7,147.8,159.2,149.1z"/>
		<path fill="#FFFFFF" d="M184.8,132.1c-0.6-0.8-0.2-1.2,0.6-1.1c1.6,0.1,3.1-0.1,4.7-0.2c1.7-3.1,3.3-5.7,4.3-7    c0.5-0.7,1.1-0.7,1.3,0c0.6,1.6,0.6,3.4-0.7,6.4c2.2-0.1,3,1,3.5,1.7c0.4,0.7,0.2,1.1-0.7,1.1c-1.2-0.2-3,0-4.4,0.2    c-2.2,3.8-5.4,9.2-7.5,13.9c-1.9,4.1-1.2,7.6,1.1,7.7c2.5,0.1,5.7-3.9,7.8-8.1c0.3-0.7,1-0.8,1.2,0c0.3,0.9,0,1.9-0.6,3.2    c-0.7,1.6-4.4,6.6-8.9,6.4c-3.7-0.1-6.7-4.3-4-10.7c1.2-2.8,3.5-7.5,6-12C186.6,133.5,185.3,132.7,184.8,132.1z"/>
		<path fill="#FFFFFF" d="M195.8,156.1c-4-0.3-4.1-4.4-2.9-8.2c1.2-3.7,4.1-9.2,7.8-14.3c0.5-0.6,1-0.6,1.5-0.1    c1.2,1.9,1,4.4-1.1,7.6c-2.1,3.3-3.2,5.6-4.4,8.3c-1.2,2.8-1,4.8,0.3,4.9c2.2,0.2,5.3-3.8,8.3-8.7c3.5-5.7,5.2-9.6,7-12    c0.6-0.8,1-0.9,1.4-0.3c0.8,1,1.3,3.5-0.1,6.3c-1.2,2.5-4,6.7-5.3,9.6c-1.5,3.2-1.2,5.6,0.8,5.5c2.4-0.1,5.2-3.8,7.4-7.8    c0.3-0.5,0.8-0.6,1-0.1c0.2,0.5,0.3,2-0.5,3.5c-1.6,3.1-5.1,6-8.4,6c-3.7,0-5.1-2.3-4.7-5.6C202,153.5,199,156.4,195.8,156.1z"/>
		<path fill="#FFFFFF" d="M231.5,154.8c2.3-0.1,5.3-3.9,7.3-7.8c0.3-0.5,0.7-0.5,0.9-0.1c0.2,0.5,0.3,2-0.4,3.5    c-1.5,3.1-5,6.1-8.1,5.9c-3-0.2-4.6-1.9-4.6-4.5c-1.8,2.2-4.3,4.3-7,4.3c-5.2,0-6.2-7.1-1.6-13.9c4.4-6.5,8.9-9.1,11.7-9.1    c2.3,0,3.4,1.7,3.4,3.8c3-5.8,7.3-13.4,9.3-16.3c0.6-0.8,1.1-0.7,1.3,0c0.8,1.9,0.6,4.3-1.7,8.5c-2.7,4.8-8.1,14.1-10.9,20.1    C229.7,152.6,229.6,154.9,231.5,154.8z M221.8,144.6c-3,4.8-3.7,9.7-1.5,9.8c2.2,0.1,5.3-3.3,7.9-8.4c3.3-6.2,4.1-9.8,2.5-9.8    C228.9,136.1,224.8,139.6,221.8,144.6z"/>
		<path fill="#FFFFFF" d="M238.3,148.1c1.4-4.1,5.1-10.7,7.2-13.7c0.5-0.7,0.9-0.8,1.3-0.3c0.8,0.9,1.3,3.3-0.1,6.1    c-1.2,2.5-3.5,6.3-4.7,9.1c-1.3,3.3-1.2,5.5,0.6,5.3c2.5-0.1,5.6-3.8,7.3-7.7c0.3-0.5,0.7-0.4,0.9,0c0.4,0.9,0.3,2.1-0.4,3.5    c-1.7,3.5-5.2,5.8-8.4,5.8C237.8,156.3,236.7,152.7,238.3,148.1z M250.8,133.4c-0.7,0.8-2.3,0.6-3.1-0.8c-0.9-1.5-0.6-3.2,0.3-4.2    c0.9-1,2.5-0.3,3.3,1.2C251.9,131.1,251.5,132.6,250.8,133.4z"/>
		<path fill="#FFFFFF" d="M267.2,144.1c-1.2,4.8-4.7,10.5-8.9,11.9c-2,0.7-4.8,0.5-7.1-2.5c-2.5-3.3-1.6-8.2,0.9-12.6    c2.1-3.8,5.6-7.1,8.9-7.3c1.7-0.1,2.7,0.4,3.8,1.9c1.3,1.7,3,2.1,2.6,6.2c-0.1,0.5-0.1,0.8-0.1,1.3c0.3,0,0.7-0.1,1.1-0.1    c0.4,0,0.4,0.3,0.2,0.6C268.3,143.8,267.7,144,267.2,144.1z M262.4,142.7c-1.2-0.9-2.5-2.9-2.6-4.9c-1.5,1.3-3.1,3.1-4.3,5.3    c-2.4,4.3-3.2,9.4-1.7,10.7c1.6,1.3,5-0.7,7.8-5.8c0.8-1.6,1.5-3.1,2-4.5C263.1,143.2,262.7,142.9,262.4,142.7z M264.3,137.7    c-0.3-1.8-1.4-1.5-1.7,0.2c-0.3,1.5,0.3,3.1,1.2,4C264.3,140.1,264.5,138.7,264.3,137.7z"/>
		<path fill="#FFFFFF" d="M276.8,136.5c0.3-2.2,0.8-3.3,2-4.3c1.2-1.1,2.5-1.3,3-0.8c0.6,0.6,0.3,1.2-0.5,2.5    c-0.2,0.3-0.4,0.7-0.6,1.1c-0.4,5.2,0.7,9.6,0.5,13.4c-0.1,2.2-0.5,4.6-2.5,5.9c3.8-1.4,6.1-4.8,7.5-7.8c0.3-0.6,0.8-0.4,1.1,0    c0.2,0.5,0.2,2-0.8,3.7c-2.1,3.9-6,6-9.9,6.2c-3.3,0.1-6.4-0.7-8.3-4.2c-1.3-2.5-1.2-6.2,0.7-7.8c0.7-0.6,1.1-0.3,1.2,0.6    c0.1,0.4,0.1,0.9,0.1,1.3C272.6,143,275.1,139.4,276.8,136.5z M270.8,149.2c0.8,3.3,2.5,5.6,4.3,5c2.6-0.8,1.7-9.6,1.5-14.1    C275,143.1,273,146.2,270.8,149.2z"/>
	</g>
</g>
</svg>